<?xml version="1.0" standalone="no"?>
<!DOCTYPE svg PUBLIC "-//W3C//DTD SVG 20010904//EN"
 "http://www.w3.org/TR/2001/REC-SVG-20010904/DTD/svg10.dtd">
<svg version="1.0" xmlns="http://www.w3.org/2000/svg"
 width="500.000000pt" height="500.000000pt" viewBox="0 0 500.000000 500.000000"
 preserveAspectRatio="xMidYMid meet">

<g transform="translate(0.000000,500.000000) scale(0.100000,-0.100000)"
fill="#000000" stroke="none">
<path d="M1593 3900 c-82 -17 -140 -58 -176 -125 -21 -38 -22 -56 -27 -370
l-5 -330 -563 -3 -562 -2 0 -60 0 -60 565 0 565 0 0 -195 0 -195 -565 0 -565
0 0 -60 0 -60 565 0 565 0 0 -195 0 -195 -562 0 c-432 0 -569 -3 -588 -13 -29
-15 -40 -76 -17 -95 10 -9 172 -13 588 -14 l574 -3 5 -281 5 -281 27 -41 c15
-22 49 -54 75 -69 l48 -28 746 0 746 0 49 30 c30 19 60 49 79 79 l30 49 3 384
3 383 734 0 735 0 0 60 0 60 -735 0 -735 0 0 230 0 230 735 0 735 0 0 60 0 60
-735 0 -735 0 0 438 0 438 -26 52 c-32 64 -92 108 -165 122 -63 12 -1355 12
-1416 0z m1438 -133 c14 -9 31 -29 37 -43 9 -18 12 -324 12 -1160 0 -1034 -1
-1138 -16 -1164 -38 -63 -2 -60 -774 -60 -497 0 -708 3 -723 11 -12 6 -30 21
-39 33 -16 20 -18 96 -18 1164 0 1213 -1 1173 44 1212 9 7 31 16 49 20 17 5
340 8 717 7 636 -2 687 -3 711 -20z"/>
</g>
</svg>
