<?xml version="1.0" standalone="no"?>
<!DOCTYPE svg PUBLIC "-//W3C//DTD SVG 20010904//EN"
 "http://www.w3.org/TR/2001/REC-SVG-20010904/DTD/svg10.dtd">
<svg version="1.0" xmlns="http://www.w3.org/2000/svg"
 width="500.000000pt" height="500.000000pt" viewBox="0 0 500.000000 500.000000"
 preserveAspectRatio="xMidYMid meet">

<g transform="translate(0.000000,500.000000) scale(0.100000,-0.100000)"
fill="#000000" stroke="none">
<path d="M1462 3677 l-22 -23 0 -522 0 -522 -594 0 c-653 0 -626 3 -626 -60 0
-63 -27 -60 626 -60 l594 0 0 -568 0 -569 23 -21 c46 -43 64 -35 347 165 764
538 1259 890 1297 920 l41 33 791 0 791 0 0 60 0 60 -795 0 -795 0 -725 513
c-911 644 -872 617 -904 617 -16 0 -37 -10 -49 -23z m1016 -787 c298 -211 542
-386 542 -389 -1 -3 -130 -96 -287 -206 -158 -110 -467 -328 -687 -484 -221
-156 -420 -297 -443 -313 l-43 -29 0 1035 0 1035 188 -132 c103 -73 431 -305
730 -517z"/>
</g>
</svg>
