<?xml version="1.0" standalone="no"?>
<!DOCTYPE svg PUBLIC "-//W3C//DTD SVG 20010904//EN"
 "http://www.w3.org/TR/2001/REC-SVG-20010904/DTD/svg10.dtd">
<svg version="1.0" xmlns="http://www.w3.org/2000/svg"
 width="500.000000pt" height="500.000000pt" viewBox="0 0 500.000000 500.000000"
 preserveAspectRatio="xMidYMid meet">

<g transform="translate(0.000000,500.000000) scale(0.100000,-0.100000)"
fill="#000000" stroke="none">
<path d="M2375 4180 c-138 -10 -216 -24 -353 -66 -149 -45 -236 -82 -348 -145
-312 -178 -592 -489 -723 -803 -45 -108 -98 -293 -116 -403 -22 -131 -22 -395
0 -526 98 -604 511 -1103 1088 -1318 363 -135 790 -134 1159 2 661 243 1099
874 1099 1579 0 526 -236 1008 -652 1332 -327 254 -733 377 -1154 348z m374
-346 c102 -18 235 -62 346 -115 315 -150 572 -441 688 -779 96 -280 94 -626
-4 -893 -168 -456 -547 -783 -1019 -877 -221 -45 -484 -27 -700 47 -590 202
-970 788 -910 1403 37 383 211 706 510 945 123 98 221 152 390 215 205 76 460
96 699 54z"/>
<path d="M2399 3547 c-71 -47 -69 -32 -69 -618 0 -519 0 -527 21 -553 45 -57
32 -55 613 -56 337 -1 542 3 554 9 74 39 53 161 -34 197 -27 11 -122 14 -478
14 l-445 0 -3 491 -3 491 -28 24 c-36 31 -83 31 -128 1z"/>
</g>
</svg>
