<?xml version="1.0" encoding="UTF-8" standalone="no" ?>
<!DOCTYPE svg PUBLIC "-//W3C//DTD SVG 1.1//EN" "http://www.w3.org/Graphics/SVG/1.1/DTD/svg11.dtd">
<svg xmlns="http://www.w3.org/2000/svg" xmlns:xlink="http://www.w3.org/1999/xlink" version="1.1" width="500" height="500" viewBox="0 0 500 500" xml:space="preserve">
<desc>Created with Fabric.js 4.6.0</desc>
<defs>
</defs>
<g transform="matrix(0.72 0 0 0.68 250 259.61)" id="pJnBj7F7iKB20LVBYbc8r"  >
<path style="stroke: none; stroke-width: 1; stroke-dasharray: none; stroke-linecap: butt; stroke-dashoffset: 0; stroke-linejoin: miter; stroke-miterlimit: 4; fill: rgb(0,0,0); fill-rule: nonzero; opacity: 1;" vector-effect="non-scaling-stroke"  transform=" translate(0, 0)" d="M 60.6485 151.631 C 60.6485 160.014 53.8725 166.79 45.4905 166.79 L -45.48950000000001 166.79 C -53.86950000000001 166.79 -60.65050000000001 160.01399999999998 -60.65050000000001 151.631 C -60.65050000000001 143.249 -53.86950000000001 136.468 -45.48950000000001 136.468 L 45.4905 136.468 C 53.872499999999995 136.468 60.6485 143.249 60.6485 151.631 z M 45.4905 181.953 L -45.48950000000001 181.953 C -53.86950000000001 181.953 -60.65050000000001 188.739 -60.65050000000001 197.121 C -60.65050000000001 205.49900000000002 -53.86950000000001 212.28 -45.48950000000001 212.28 C -45.48950000000001 229.044 -31.922500000000007 242.606 -15.162500000000005 242.606 L 15.164499999999997 242.606 C 31.9245 242.606 45.4915 229.04399999999998 45.4915 212.28 C 53.8735 212.28 60.6495 205.499 60.6495 197.121 C 60.648500000000006 188.739 53.8725 181.953 45.490500000000004 181.953 z M -0.0005 -212.279 C 66.9015 -212.279 121.3015 -157.845 121.3015 -90.97699999999999 C 121.3015 -47.73599999999999 98.5865 -8.703999999999994 60.55950000000001 13.417000000000016 L 45.490500000000004 22.187000000000015 L 45.490500000000004 39.62300000000002 L 45.490500000000004 90.98000000000002 L -45.4895 90.98000000000002 L -45.4895 39.62300000000002 L -45.4895 22.215000000000018 L -60.561499999999995 13.418000000000017 C -98.6165 -8.731999999999982 -121.3015 -47.76799999999999 -121.3015 -90.97599999999998 C -121.30250000000001 -157.84499999999997 -66.8725 -212.279 -0.0005000000000023874 -212.279 M -0.0005 -242.606 C -83.75150000000001 -242.606 -151.62849999999997 -174.728 -151.62849999999997 -90.97800000000001 C -151.62849999999997 -35.00500000000001 -120.94649999999997 13.326999999999998 -75.81149999999998 39.62099999999998 L -75.81149999999998 90.97799999999998 C -75.81149999999998 107.73699999999998 -62.25149999999998 121.29899999999998 -45.48949999999998 121.29899999999998 L 45.490500000000026 121.29899999999998 C 62.22150000000003 121.29899999999998 75.81650000000002 107.73699999999998 75.81650000000002 90.97799999999998 L 75.81650000000002 39.62099999999998 C 120.94750000000002 13.354999999999983 151.62850000000003 -35.005000000000024 151.62850000000003 -90.97800000000001 C 151.62850000000003 -174.728 83.75050000000003 -242.606 -0.0004999999999597549 -242.606 z" stroke-linecap="round" />
</g>
</svg>